# xmcd
#
# Track frame offsets:
#	150
#	8663
#	21798
#	40644
#	58348
#	85799
#	105625
#	123540
#	139745
#	158483
#	171839
#
# Disc length: 2541 seconds
#
# Revision: 0
# Processed by: cddbd v1.5PL3 Copyright (c) Steve Scherf et al.
# Submitted via: dBpowerAMP V4.0
#
DISCID=8209eb0b
DTITLE=Vico C - Emboscada
DYEAR=2002
DGENRE=Rap
TTITLE0=Intro
TTITLE1=Peligro
TTITLE2=¿Y Ahora qué?
TTITLE3=Abusando
TTITLE4=Niña Modelo
TTITLE5=Emboscada
TTITLE6=Perros
TTITLE7=Movida
TTITLE8=Por el Lente del Cielo
TTITLE9=Crack Crack
TTITLE10=Super Héroe
EXTD=
EXTT0=
EXTT1=
EXTT2=
EXTT3=
EXTT4=
EXTT5=
EXTT6=
EXTT7=
EXTT8=
EXTT9=
EXTT10=
PLAYORDER=
